<?xml version="1.0" encoding="UTF-8" standalone="no"?>
<svg
   id="livetype"
   width="42"
   height="42"
   viewBox="0 0 42.000001 42.000001"
   version="1.1"
   sodipodi:docname="Apple.svg"
   inkscape:version="1.3 (0e150ed6c4, 2023-07-21)"
   xmlns:inkscape="http://www.inkscape.org/namespaces/inkscape"
   xmlns:sodipodi="http://sodipodi.sourceforge.net/DTD/sodipodi-0.dtd"
   xmlns="http://www.w3.org/2000/svg"
   xmlns:svg="http://www.w3.org/2000/svg"
   xmlns:rdf="http://www.w3.org/1999/02/22-rdf-syntax-ns#"
   xmlns:cc="http://creativecommons.org/ns#"
   xmlns:dc="http://purl.org/dc/elements/1.1/">
  <defs
     id="defs23" />
  <sodipodi:namedview
     id="namedview23"
     pagecolor="#ffffff"
     bordercolor="#000000"
     borderopacity="0.25"
     inkscape:showpageshadow="2"
     inkscape:pageopacity="0.0"
     inkscape:pagecheckerboard="0"
     inkscape:deskcolor="#d1d1d1"
     inkscape:zoom="9.8847506"
     inkscape:cx="30.046281"
     inkscape:cy="22.610586"
     inkscape:window-width="1858"
     inkscape:window-height="1057"
     inkscape:window-x="54"
     inkscape:window-y="-8"
     inkscape:window-maximized="1"
     inkscape:current-layer="livetype" />
  <title
     id="title1">Download_on_the_App_Store_Badge_AZ_RGB_blk_100517</title>
  <path
     id="_Path_"
     data-name="&lt;Path&gt;"
     d="m 32.47311,22.371192 a 9.5601776,9.5601776 0 0 1 4.552434,-8.021006 9.78591,9.78591 0 0 0 -7.710176,-4.168235 c -3.243979,-0.3405014 -6.388875,1.941144 -8.041947,1.941144 -1.685063,0 -4.230227,-1.907337 -6.970949,-1.850948 a 10.268149,10.268149 0 0 0 -8.6408465,5.269736 c -3.736127,6.468523 -0.9493124,15.975073 2.6295846,21.203739 1.7905979,2.560329 3.8832929,5.420282 6.6215409,5.318862 2.679541,-0.111137 3.680298,-1.70865 6.914733,-1.70865 3.204416,0 4.143335,1.70865 6.937143,1.644166 2.875272,-0.04667 4.68683,-2.571707 6.414606,-5.15628 a 21.176539,21.176539 0 0 0 2.933304,-5.974153 9.2380284,9.2380284 0 0 1 -5.639427,-8.498375 z"
     style="fill:#ffffff;stroke-width:1.93181" />
  <path
     id="_Path_2"
     data-name="&lt;Path&gt;"
     d="M 27.19611,6.7432266 A 9.4127223,9.4127223 0 0 0 29.349155,0 9.5768878,9.5768878 0 0 0 23.152708,3.2060569 8.9565439,8.9565439 0 0 0 20.943274,9.6996352 7.9185998,7.9185998 0 0 0 27.19611,6.7432266 Z"
     style="fill:#ffffff;stroke-width:1.93181" />
  <metadata
     id="metadata23">
    <rdf:RDF>
      <cc:Work
         rdf:about="">
        <dc:title>Download_on_the_App_Store_Badge_AZ_RGB_blk_100517</dc:title>
      </cc:Work>
    </rdf:RDF>
  </metadata>
</svg>
