<svg xmlns="http://www.w3.org/2000/svg" width="42" height="42"><path fill="#fff" d="M32.47311 22.371192a9.5601776 9.5601776 0 0 1 4.552434-8.021006 9.78591 9.78591 0 0 0-7.710176-4.168235c-3.243979-.3405014-6.388875 1.941144-8.041947 1.941144-1.685063 0-4.230227-1.907337-6.970949-1.850948a10.268149 10.268149 0 0 0-8.6408465 5.269736c-3.736127 6.468523-.9493124 15.975073 2.6295846 21.203739 1.7905979 2.560329 3.8832929 5.420282 6.6215409 5.318862 2.679541-.111137 3.680298-1.70865 6.914733-1.70865 3.204416 0 4.143335 1.70865 6.937143 1.644166 2.875272-.04667 4.68683-2.571707 6.414606-5.15628a21.176539 21.176539 0 0 0 2.933304-5.974153 9.2380284 9.2380284 0 0 1-5.639427-8.498375zM27.19611 6.7432266A9.4127223 9.4127223 0 0 0 29.349155 0 9.5768878 9.5768878 0 0 0 23.152708 3.2060569 8.9565439 8.9565439 0 0 0 20.943274 9.6996352 7.9185998 7.9185998 0 0 0 27.19611 6.7432266Z" data-name="&lt;Path&gt;"/></svg>