<svg xmlns="http://www.w3.org/2000/svg" xml:space="preserve" width="42" height="42" viewBox="0 0 420 420"><g fill="#fff"><path d="M170.46 128.53v-41.9c0-6.67-3.13-9.76-9.62-9.76h-10.58v61.42h10.58c6.5 0 9.62-3.09 9.62-9.76zM136.1 277.2 130.34 291.56 141.8 291.56z" transform="translate(28.134)scale(.96647)"/><path d="M 341.93,0 H 34.42 C 9.2,0 0,9.17 0,34.02 v 302.9 c 0,3.9 0.7,10.91 1.97,13.91 1.27,3 2.45,5.46 4.8,7.65 2.43,2.26 6.63,4.61 8.65,5.53 l 163.01,68.59 c 3,1.27 6.29,1.97 9.74,1.97 3.46,0 6.75,-0.7 9.74,-1.97 L 360.93,364 c 2.02,-0.92 6.22,-3.27 8.65,-5.53 2.35,-2.19 3.53,-4.65 4.8,-7.65 1.27,-3 1.97,-10.01 1.97,-13.91 V 34.02 C 376.35,9.17 367.15,0 341.93,0 Z M 207.81,54.5 h 25.74 v 166.63 h -25.74 z m 1.33,206.47 h 14.96 v 50.5 h -14.09 v -29.01 l -13.07,19.77 h -0.29 l -13,-19.62 v 28.86 h -13.87 v -50.5 h 14.96 l 12.19,19.55 z M 124.52,54.5 h 40.41 c 20.93,0 31.27,10.23 31.27,30.95 v 44.28 c 0,20.71 -10.34,30.94 -31.27,30.94 h -14.67 v 60.46 h -25.74 z m -70.16,0 h 57.25 V 77.59 H 80.1 v 47.14 h 30.3 v 23.09 H 80.1 v 50.23 h 31.99 v 23.09 H 54.36 Z m 48.77,250.24 c -2.73,2.21 -5.94,4.07 -9.64,5.56 -3.7,1.49 -7.88,2.24 -12.56,2.24 -3.99,0 -7.68,-0.65 -11.06,-1.95 -3.39,-1.3 -6.31,-3.1 -8.8,-5.41 -2.48,-2.31 -4.43,-5.06 -5.84,-8.26 -1.41,-3.19 -2.11,-6.7 -2.11,-10.49 v -0.15 c 0,-3.7 0.69,-7.15 2.08,-10.32 1.39,-3.17 3.3,-5.95 5.73,-8.33 2.44,-2.38 5.34,-4.24 8.72,-5.59 3.38,-1.34 7.04,-2.02 10.98,-2.02 4.53,0 8.43,0.65 11.72,1.95 3.28,1.3 6.29,3.1 9.02,5.41 l -8.32,9.88 c -1.85,-1.54 -3.74,-2.72 -5.66,-3.53 -1.92,-0.82 -4.15,-1.23 -6.68,-1.23 -1.85,0 -3.56,0.36 -5.15,1.08 -1.58,0.72 -2.95,1.71 -4.12,2.96 -1.17,1.25 -2.09,2.72 -2.77,4.4 -0.68,1.68 -1.02,3.49 -1.02,5.41 v 0.15 c 0,2.02 0.34,3.9 1.02,5.62 0.68,1.73 1.65,3.21 2.88,4.44 1.24,1.23 2.7,2.19 4.38,2.89 1.68,0.69 3.54,1.05 5.59,1.05 3.31,0 6.03,-0.69 8.18,-2.09 v -6.13 H 79.63 V 282 h 23.5 z m 4.5,6.73 21.77,-50.87 h 13.65 l 21.76,50.87 h -15.18 l -3.73,-9.02 h -19.71 l -3.65,9.02 z m 142.67,55.89 c -0.07,0.16 -0.17,0.3 -0.29,0.42 -0.12,0.12 -0.26,0.22 -0.42,0.28 l -59.48,25.03 c -0.64,0.27 -1.34,0.42 -2.07,0.42 -0.73,0 -1.43,-0.15 -2.07,-0.42 l -59.02,-25.03 c -0.16,-0.07 -0.3,-0.17 -0.42,-0.28 -0.12,-0.12 -0.22,-0.26 -0.29,-0.42 -0.07,-0.16 -0.1,-0.33 -0.1,-0.52 0,-0.19 0.04,-0.36 0.1,-0.52 0.07,-0.16 0.17,-0.3 0.29,-0.42 0.12,-0.12 0.26,-0.22 0.42,-0.29 0.16,-0.07 0.33,-0.1 0.52,-0.1 h 121.6 c 0.18,0 0.36,0.04 0.52,0.1 0.16,0.07 0.3,0.16 0.42,0.29 0.12,0.12 0.22,0.26 0.29,0.42 0.07,0.16 0.1,0.33 0.1,0.52 0,0.19 -0.04,0.36 -0.1,0.52 z m 24.74,-55.89 h -41.47 v -50.5 h 41.1 v 11.91 h -27.09 v 7.65 h 24.53 v 11.04 h -24.53 v 8.01 h 27.45 v 11.89 z M 247.15,191.61 V 84.01 c 0,-20.71 10.35,-30.95 31.27,-30.95 h 12.51 c 20.93,0 31.03,10 31.03,30.71 v 34.04 H 296.71 V 85.2 c 0,-6.67 -3.13,-9.76 -9.62,-9.76 h -4.33 c -6.74,0 -9.86,3.09 -9.86,9.76 v 105.22 c 0,6.67 3.13,9.76 9.86,9.76 h 4.81 c 6.49,0 9.62,-3.09 9.62,-9.76 v -37.61 h 25.26 v 38.8 c 0,20.71 -10.34,30.95 -31.27,30.95 h -12.75 c -20.93,0 -31.28,-10.23 -31.28,-30.95 z m 76.27,104.32 c 0,2.6 -0.5,4.91 -1.5,6.93 -1,2.02 -2.4,3.74 -4.2,5.16 -1.8,1.42 -3.96,2.5 -6.5,3.25 -2.53,0.75 -5.35,1.12 -8.47,1.12 -4.58,0 -8.92,-0.69 -13.03,-2.09 -4.11,-1.4 -7.75,-3.49 -10.91,-6.28 l 7.88,-9.31 c 5.11,4.04 10.63,6.06 16.57,6.06 1.9,0 3.35,-0.3 4.34,-0.9 1,-0.6 1.5,-1.45 1.5,-2.56 v -0.15 c 0,-0.53 -0.13,-1 -0.37,-1.4 -0.24,-0.41 -0.69,-0.8 -1.35,-1.19 -0.66,-0.39 -1.54,-0.76 -2.62,-1.12 -1.1,-0.36 -2.51,-0.73 -4.27,-1.12 -2.73,-0.63 -5.26,-1.31 -7.59,-2.05 -2.33,-0.75 -4.37,-1.71 -6.1,-2.89 -1.73,-1.18 -3.09,-2.65 -4.09,-4.4 -1,-1.75 -1.5,-3.94 -1.5,-6.53 v -0.15 c 0,-2.35 0.45,-4.52 1.35,-6.5 0.9,-1.98 2.22,-3.68 3.94,-5.12 1.72,-1.44 3.81,-2.56 6.24,-3.36 2.44,-0.79 5.19,-1.19 8.25,-1.19 4.38,0 8.29,0.56 11.72,1.7 3.43,1.14 6.53,2.8 9.31,5.02 l -7.08,9.88 c -2.33,-1.64 -4.73,-2.87 -7.19,-3.72 -2.46,-0.84 -4.83,-1.27 -7.11,-1.27 -1.7,0 -2.99,0.32 -3.83,0.94 -0.85,0.62 -1.28,1.4 -1.28,2.31 v 0.15 c 0,0.58 0.13,1.08 0.4,1.51 0.27,0.43 0.73,0.83 1.39,1.19 0.66,0.36 1.56,0.73 2.7,1.08 1.14,0.36 2.59,0.73 4.34,1.12 2.92,0.62 5.56,1.36 7.92,2.2 2.36,0.84 4.36,1.87 6.03,3.06 1.65,1.2 2.92,2.65 3.79,4.37 0.88,1.71 1.32,3.74 1.32,6.1 z" transform="translate(28.134)scale(.96647)"/></g></svg>