<svg xmlns="http://www.w3.org/2000/svg" width="42" height="42" viewBox="0 0 39.375 39.375"><path fill="#fff" d="M 5.13347,2.1958382 C 3.415948,3.2156319 0.03209422,7.1030439 0,8.1225167 v 1.687514 c 0,2.1390793 1.9994697,4.0191583 3.8148791,4.0191583 2.1798392,0 3.9960509,-1.806583 3.9962114,-3.9507976 0,2.1442146 1.753949,3.9507976 3.9339485,3.9507976 2.18016,0 3.877784,-1.806583 3.877784,-3.9507976 0,2.1442146 1.864995,3.9507976 4.044995,3.9507976 h 0.03947 c 2.180161,0 4.045156,-1.806583 4.045156,-3.9507976 0,2.1442146 1.697784,3.9507976 3.877623,3.9507976 2.18,0 3.933948,-1.806583 3.933948,-3.9507976 0,2.1442146 1.816533,3.9507976 3.996212,3.9507976 1.815409,0 3.814879,-1.879758 3.814879,-4.0191583 V 8.1225167 C 39.343017,7.1028835 35.959163,3.215311 34.241962,2.1958382 28.903731,2.008408 25.202947,1.9759928 19.687395,1.9767952 14.172004,1.9772766 6.6526498,2.0634496 5.1331491,2.1958382 Z M 15.595222,12.821752 a 4.4972021,4.4972021 0 0 1 -0.767052,0.987699 c -0.822896,0.804602 -1.950847,1.303347 -3.194337,1.303347 A 4.5705374,4.5705374 0 0 1 8.4327555,13.80881 C 8.1346002,13.516752 7.9080151,13.204475 7.7005259,12.840848 l -9.628e-4,6.42e-4 c -0.2073286,0.364269 -0.4961766,0.676385 -0.7949737,0.968764 a 4.5734259,4.5734259 0 0 1 -3.2010772,1.303025 c -0.14988,0 -0.3058579,-0.0414 -0.4319882,-0.08473 -0.1752344,1.824877 -0.2492116,3.568877 -0.2753684,4.84045 l -3.209e-4,0.0072 c -0.00321,0.645736 -0.00642,1.176735 -0.00963,1.91442 0.033699,3.82884 -0.3791932,12.409871 1.6881558,14.518301 3.2036448,0.746993 9.0987105,1.087191 15.0128725,1.089277 h 9.62e-4 c 5.914002,-0.0021 11.809068,-0.342284 15.012712,-1.089277 2.067349,-2.10859 1.654457,-10.689621 1.688156,-14.518461 -0.0035,-0.737525 -0.0064,-1.268524 -0.0096,-1.91442 l -4.82e-4,-0.0072 c -0.026,-1.271894 -0.09997,-3.015734 -0.275208,-4.840611 -0.12613,0.04333 -0.281947,0.08473 -0.431988,0.08473 a 4.5734259,4.5734259 0 0 1 -3.201077,-1.303025 c -0.298797,-0.292378 -0.587645,-0.604334 -0.795134,-0.968764 l -9.63e-4,-6.42e-4 c -0.20765,0.363627 -0.434074,0.676065 -0.73223,0.967962 a 4.5702165,4.5702165 0 0 1 -3.200916,1.303827 c -1.24333,0 -2.371442,-0.499065 -3.194338,-1.303506 a 4.4972021,4.4972021 0 0 1 -0.767051,-0.9877 4.4915857,4.4915857 0 0 1 -0.759991,0.9877 4.5718212,4.5718212 0 0 1 -3.201399,1.303667 c -0.04333,0 -0.08665,-0.0019 -0.129981,-0.0032 h -0.0011 c -0.04333,0.0013 -0.08665,0.0032 -0.130462,0.0032 a 4.5718212,4.5718212 0 0 1 -3.201449,-1.303507 4.4919066,4.4919066 0 0 1 -0.759991,-0.9877 z m -3.287411,4.250879 -3.21e-4,0.0016 h 0.0024 c 1.301902,0.0027 2.458417,0 3.891424,1.563951 1.127791,-0.118267 2.306291,-0.177321 3.485753,-0.175556 h 9.63e-4 c 1.179462,-0.0016 2.357962,0.05729 3.485913,0.175556 1.433007,-1.564112 2.589522,-1.561384 3.891424,-1.563951 h 0.0022 l -3.21e-4,-0.0016 c 0.615085,0 3.075589,0 4.790062,4.815256 l 1.841566,6.605792 c 1.364646,4.914266 -0.436963,5.034459 -2.6842,5.038792 -3.332664,-0.124044 -5.177921,-2.544269 -5.177921,-4.964173 -1.844775,0.302328 -3.996853,0.453491 -6.148931,0.453652 h -9.62e-4 c -2.152239,0 -4.304316,-0.151324 -6.148931,-0.453652 0,2.419904 -1.845418,4.840129 -5.1779209,4.964173 -2.2472371,-0.0043 -4.0486855,-0.124365 -2.6840394,-5.038792 l 1.8420476,-6.605632 c 1.7144731,-4.815256 4.1749767,-4.815256 4.7900617,-4.815256 z m 7.379263,3.784229 v 9.63e-4 c -0.0032,0.0032 -3.508379,3.222259 -4.138549,4.36722 l 2.295378,-0.09195 v 2.001716 c 0,0.09371 0.921104,0.05552 1.843171,0.01284 h 9.63e-4 c 0.921746,0.04269 1.84301,0.08088 1.84301,-0.01284 v -2.001716 l 2.295379,0.09195 c -0.630331,-1.144961 -4.13855,-4.36722 -4.13855,-4.36722 v -9.63e-4 l -4.81e-4,3.21e-4 z" color="#000"/></svg>