<svg xmlns="http://www.w3.org/2000/svg" width="42" height="42" fill="none"><path fill="#fff" d="m 1.8064518,5.4193555 c -0.1247078,0 -0.2446362,0.013488 -0.3622311,0.037646 C 1.3266255,5.4810879 1.2135705,5.5147843 1.1055109,5.5604996 0.9974514,5.6062148 0.89113087,5.6649366 0.79502691,5.7298484 0.69892368,5.7947843 0.60860831,5.8645134 0.52688178,5.9462372 0.44515549,6.0279611 0.37540959,6.1182837 0.3104833,6.2143821 0.24555702,6.3104854 0.18683529,6.4168011 0.14112965,6.5248654 0.09542401,6.6329153 0.06169876,6.7459751 0.03763441,6.8635752 0.01357055,6.9811703 0,7.1011019 0,7.2258073 V 34.548391 c 0,0.257207 0.01218753,0.511599 0.03763441,0.762096 0.02543966,0.250497 0.06327158,0.49604 0.11290324,0.738577 0.0496317,0.242536 0.11089447,0.481725 0.18346807,0.715053 0.0725736,0.233322 0.155061,0.463957 0.24932792,0.686828 0.0942679,0.222868 0.20047521,0.438028 0.31518827,0.649193 0.11471449,0.211162 0.24243329,0.418054 0.37634409,0.616265 0.1339111,0.198204 0.2762321,0.389916 0.4280915,0.573924 0.15186,0.184017 0.3112792,0.358325 0.4798387,0.526882 0.1685588,0.168554 0.3428708,0.327982 0.5268818,0.479839 0.18401,0.151863 0.3757106,0.294182 0.5739249,0.428091 0.1982135,0.133918 0.4050949,0.261632 0.6162633,0.376344 0.2111694,0.114722 0.4263186,0.220917 0.6491938,0.315187 0.2228679,0.09427 0.4534964,0.176743 0.6868274,0.249329 0.2333213,0.07257 0.4725124,0.133846 0.7150538,0.183463 0.2425415,0.04962 0.4880744,0.08746 0.7385763,0.112892 C 6.940017,41.987788 7.1944015,42 7.4516138,42 H 34.548391 c 0.257207,0 0.511599,-0.01228 0.762096,-0.03765 0.2505,-0.02543 0.496038,-0.06327 0.738577,-0.112892 0.242539,-0.04962 0.48172,-0.110892 0.715053,-0.183463 0.233346,-0.07257 0.463953,-0.155066 0.686828,-0.249329 0.222868,-0.09427 0.438021,-0.200468 0.649193,-0.315187 0.211162,-0.114722 0.418047,-0.242436 0.616265,-0.376344 0.198228,-0.133919 0.389909,-0.276233 0.573924,-0.428091 0.184017,-0.151862 0.358318,-0.311283 0.526882,-0.479839 0.168554,-0.168554 0.327974,-0.342874 0.479839,-0.526882 0.151863,-0.184017 0.294175,-0.375713 0.428091,-0.573924 0.133918,-0.198204 0.261627,-0.405098 0.376344,-0.616265 0.114722,-0.211162 0.220917,-0.426323 0.315187,-0.649193 0.09427,-0.222868 0.176743,-0.453499 0.249329,-0.686828 0.07257,-0.233321 0.133846,-0.472517 0.183463,-0.715053 0.04964,-0.242537 0.08746,-0.48808 0.112892,-0.738577 C 41.987788,35.05999 42,34.805598 42,34.548391 V 7.2258073 C 42,7.1011139 41.986512,6.9811703 41.962354,6.8635752 41.938268,6.7459872 41.904571,6.6329274 41.858856,6.5248654 41.813141,6.4168155 41.754443,6.3104757 41.689507,6.2143821 41.624571,6.1182789 41.554842,6.0279563 41.473118,5.9462372 41.391394,5.8645134 41.301096,5.7947602 41.204973,5.7298484 41.108846,5.6649125 41.002554,5.6061908 40.89449,5.5604996 40.786416,5.5147843 40.673404,5.4810639 40.55578,5.4570019 40.438168,5.4329159 40.318292,5.4193555 40.193548,5.4193555 Z M 12.19355,14.903228 h 8.129033 v 8.129033 H 12.19355 Z m 9.483872,0 h 8.129033 v 8.129033 H 21.677422 Z M 12.19355,24.3871 h 8.129033 v 8.129033 H 12.19355 Z m 9.483872,0 h 8.129033 v 8.129033 h -8.129033 z"/><path stroke="#fff" stroke-linecap="round" stroke-width="2.71" d="M 10.83859,6.7741943 V 2.7096777 c 0,-0.7482564 0.606727,-1.3548388 1.35508,-1.3548388 h 17.612905 c 0.748112,0 1.354839,0.6065824 1.354839,1.3548388 v 4.0645166"/></svg>