<svg xmlns="http://www.w3.org/2000/svg" xmlns:xlink="http://www.w3.org/1999/xlink" xml:space="preserve" width="42mm" height="42mm" viewBox="0 0 158.74 158.74"><defs><clipPath id="a" clipPathUnits="userSpaceOnUse"><path d="m 82.277,391.343 h 95.811 v 28.885 H 82.277 Z" transform="translate(-176.584 -409.927)"/></clipPath></defs><path fill="#fff" fill-rule="evenodd" d="m -77.392,1.093 c -0.3,-0.448 -0.46,-0.975 -0.46,-1.514 l -0.016,0.006 c -0.001,-0.36 0.069,-0.716 0.207,-1.049 0.138,-0.332 0.34,-0.634 0.595,-0.888 0.255,-0.254 0.558,-0.455 0.891,-0.592 0.333,-0.136 0.689,-0.206 1.049,-0.203 0.54,0 1.067,0.16 1.515,0.459 0.448,0.3 0.798,0.725 1.004,1.224 0.206,0.498 0.26,1.046 0.155,1.575 -0.105,0.528 -0.365,1.014 -0.746,1.396 -0.381,0.381 -0.867,0.64 -1.396,0.746 -0.529,0.105 -1.077,0.051 -1.575,-0.155 -0.498,-0.207 -0.924,-0.556 -1.223,-1.005 m 5.28,0.504 c 0.399,-0.597 0.611,-1.3 0.61,-2.018 -0.001,-0.962 -0.384,-1.883 -1.064,-2.563 -0.68,-0.68 -1.601,-1.063 -2.563,-1.064 -0.718,-0.001 -1.421,0.211 -2.018,0.61 -0.598,0.399 -1.064,0.966 -1.339,1.629 -0.275,0.664 -0.347,1.394 -0.207,2.099 0.14,0.704 0.486,1.351 0.994,1.859 0.508,0.508 1.155,0.854 1.859,0.994 0.705,0.14 1.435,0.068 2.099,-0.207 0.663,-0.276 1.23,-0.741 1.629,-1.339 m -13.141,-13.214 -1.777,0.735 c 0.258,-0.536 0.666,-0.986 1.175,-1.295 0.509,-0.308 1.096,-0.462 1.691,-0.442 0.595,0.02 1.171,0.212 1.658,0.554 0.487,0.341 0.865,0.817 1.086,1.37 0.221,0.552 0.277,1.157 0.161,1.74 -0.117,0.584 -0.401,1.121 -0.817,1.546 -0.416,0.425 -0.948,0.719 -1.529,0.848 -0.581,0.128 -1.186,0.084 -1.743,-0.126 l 1.832,-0.757 c 0.553,-0.23 0.992,-0.671 1.22,-1.225 0.229,-0.554 0.228,-1.176 -0.003,-1.73 -0.23,-0.553 -0.671,-0.992 -1.225,-1.221 -0.554,-0.228 -1.176,-0.227 -1.729,0.003 m 5.341,21.918 c -3.63,-10e-4 -7.126,-1.368 -9.794,-3.83 -2.667,-2.461 -4.31,-5.837 -4.601,-9.455 l 7.741,-3.203 c 0.677,0.465 1.48,0.713 2.302,0.712 h 0.228 l 3.442,4.988 v 0.072 c 0.003,1.077 0.326,2.129 0.927,3.022 0.602,0.894 1.454,1.589 2.45,1.999 0.996,0.409 2.091,0.514 3.147,0.302 1.056,-0.213 2.025,-0.733 2.785,-1.496 0.76,-0.763 1.277,-1.734 1.486,-2.79 0.208,-1.057 0.099,-2.151 -0.314,-3.146 -0.413,-0.995 -1.111,-1.844 -2.007,-2.442 -0.896,-0.598 -1.948,-0.917 -3.025,-0.917 h -0.124 l -4.898,-3.504 v -0.192 c 0.003,-1.016 -0.373,-1.996 -1.054,-2.75 -0.68,-0.754 -1.618,-1.227 -2.628,-1.328 -1.011,-0.1 -2.023,0.179 -2.839,0.783 -0.816,0.605 -1.378,1.492 -1.576,2.488 l -5.534,2.286 c 0.733,-2.586 2.172,-4.916 4.156,-6.728 1.984,-1.812 4.435,-3.035 7.076,-3.531 2.641,-0.496 5.368,-0.245 7.874,0.724 2.507,0.969 4.693,2.618 6.313,4.762 1.621,2.144 2.611,4.697 2.86,7.372 0.249,2.676 -0.253,5.368 -1.451,7.774 -1.197,2.406 -3.042,4.43 -5.326,5.844 -2.285,1.415 -4.919,2.164 -7.606,2.164 z" clip-path="url(#a)" transform="matrix(5.50226 0 0 -5.50226 518.9 56.678)"/></svg>