<?xml version="1.0" encoding="UTF-8" standalone="no"?>
<svg
   viewBox="0 0 512 512"
   version="1.1"
   id="svg1"
   sodipodi:docname="delete-left-solid.svg"
   width="512"
   height="512"
   xmlns:inkscape="http://www.inkscape.org/namespaces/inkscape"
   xmlns:sodipodi="http://sodipodi.sourceforge.net/DTD/sodipodi-0.dtd"
   xmlns="http://www.w3.org/2000/svg"
   xmlns:svg="http://www.w3.org/2000/svg">
  <defs
     id="defs1" />
  <sodipodi:namedview
     id="namedview1"
     pagecolor="#000000"
     bordercolor="#000000"
     borderopacity="0.25"
     inkscape:showpageshadow="2"
     inkscape:pageopacity="0.0"
     inkscape:pagecheckerboard="0"
     inkscape:deskcolor="#d1d1d1" />
  <!--!Font Awesome Free 6.7.2 by @fontawesome - https://fontawesome.com License - https://fontawesome.com/license/free Copyright 2025 Fonticons, Inc.-->
  <path
     d="M 182.48828,83.652344 C 159.70536,82.503243 142.62781,98.713905 128.30352,114.20172 87.723547,154.93655 46.88068,195.42113 6.4656251,236.31296 c -12.1528513,13.77659 -5.61678126,34.21548 7.9794219,44.18695 44.045073,43.81371 87.582963,88.16703 131.949483,131.63876 20.76033,18.02066 49.18824,11.67388 74.24525,12.8457 80.09035,-0.19331 160.20519,0.38794 240.28014,-0.29296 31.23715,-2.35935 54.74469,-33.34473 51.08008,-63.97987 -0.19361,-75.324 0.38919,-150.67263 -0.29492,-225.98107 -2.35734,-31.23621 -33.34402,-54.745181 -63.97791,-51.078126 -88.41296,0 -176.82593,0 -265.23889,0 z m 27.66602,31.007816 c 23.35231,-0.0645 35.79295,21.98534 51.5286,35.68875 17.03929,17.0393 34.07859,34.07859 51.11788,51.11789 26.18293,-25.9997 52.00578,-52.37819 78.41797,-78.13672 22.03262,-19.84554 61.21094,-3.31859 62.58789,26.24219 2.99278,24.21869 -19.59671,37.79645 -33.70444,53.48119 -17.61935,17.6189 -35.23871,35.2378 -52.85806,52.8567 26.00069,26.18327 52.37738,52.00899 78.13867,78.41992 19.84146,22.03483 3.31756,61.21026 -26.24414,62.58789 -24.21822,2.99233 -37.79673,-19.59672 -53.4812,-33.70445 -17.6189,-17.61935 -35.23779,-35.2387 -52.85669,-52.85805 -26.18356,25.99972 -52.00717,52.3781 -78.41992,78.13672 -22.03215,19.84573 -61.21071,3.31869 -62.58789,-26.24219 -2.99245,-24.21829 19.59669,-37.79668 33.70415,-53.48149 17.61945,-17.61945 35.2389,-35.2389 52.85835,-52.85835 -25.99971,-26.18293 -52.37818,-52.00579 -78.13672,-78.41797 -20.81586,-23.91777 -1.72802,-63.76856 29.93555,-62.83203 z"
     style="display:inline;fill:#ffffff;stroke-width:0.889"
     id="path2" />
</svg>
