<?xml version="1.0" encoding="UTF-8" standalone="no"?>
<svg
   width="639.14148"
   height="922.01355"
   version="1.1"
   id="svg4"
   sodipodi:docname="logo.svg"
   inkscape:export-filename="logo.svg"
   inkscape:export-xdpi="96"
   inkscape:export-ydpi="96"
   xmlns:inkscape="http://www.inkscape.org/namespaces/inkscape"
   xmlns:sodipodi="http://sodipodi.sourceforge.net/DTD/sodipodi-0.dtd"
   xmlns:xlink="http://www.w3.org/1999/xlink"
   xmlns="http://www.w3.org/2000/svg"
   xmlns:svg="http://www.w3.org/2000/svg">
  <sodipodi:namedview
     id="namedview4"
     pagecolor="#ffffff"
     bordercolor="#000000"
     borderopacity="0.25"
     inkscape:showpageshadow="2"
     inkscape:pageopacity="0.0"
     inkscape:pagecheckerboard="0"
     inkscape:deskcolor="#d1d1d1" />
  <defs
     id="defs2">
    <linearGradient
       xlink:href="#a"
       id="d"
       x1="269.58499"
       x2="488.26999"
       y1="847.20398"
       y2="393.07901"
       gradientTransform="matrix(1.03628,0,0,1.03628,-217.75755,-76.730013)"
       gradientUnits="userSpaceOnUse" />
    <linearGradient
       id="a">
      <stop
         offset=".045"
         stop-color="#7f24ce"
         id="stop1" />
      <stop
         offset="1"
         stop-color="#f87cfe"
         id="stop2" />
    </linearGradient>
    <linearGradient
       xlink:href="#a"
       id="c"
       x1="496.51901"
       x2="635.83099"
       y1="813.47699"
       y2="589.77802"
       gradientTransform="matrix(1.03628,0,0,1.03628,-217.75755,-76.730013)"
       gradientUnits="userSpaceOnUse" />
    <linearGradient
       xlink:href="#a"
       id="b"
       x1="635.83099"
       x2="721.82202"
       y1="589.77802"
       y2="368.40799"
       gradientTransform="matrix(1.03628,0,0,1.03628,-217.75755,-76.730013)"
       gradientUnits="userSpaceOnUse" />
  </defs>
  <path
     fill="url(#b)"
     d="m 368.97645,26.328987 c -34.755,24.138 -66.55,61.123 -77.751,100.567003 -11.201,39.444 -13.626,79.433 1.545,133.558 15.172,54.125 88.045,97.183 148.257,117.495 73.416,25.327 137.083,79.066 168.316,150.939 7.286,14.202 32.339,76.178 29.588,25.145 2.5,-88.033 -34.945,-176.536 -103.863,-232.354 -50.885,-45.69 -122.768,-70.396 -154.211,-135.492 -27.227,-47.76 -25.614,-106.295003 -9.437,-157.417003 l -1.219,-1.22 z"
     paint-order="stroke fill markers"
     style="mix-blend-mode:normal;fill:url(#b)"
     id="path2" />
  <path
     fill="url(#c)"
     d="m 320.27945,520.61499 c 71.209,-3.918 134.842,62.821 127.548,133.776 -2.45,65.695 -63.5,123.452 -130.029,116.976 -77.274,2.835 -137.082,-80.076 -118.505,-152.855 11.04,-56.002 64.314,-97.88 120.983,-97.897 z"
     paint-order="stroke fill markers"
     style="mix-blend-mode:normal;fill:url(#c)"
     id="path3" />
  <path
     fill="url(#d)"
     d="M 87.781821,0.00292557 C 103.65747,21.46677 119.22663,41.242727 127.50745,67.503987 c 28.37,74.372003 7.785,156.373003 -29.134999,223.804003 -56.55,111.042 -111.432,233.484 -95.6120004,361.024 15.9800004,115.215 97.8739994,220.939 210.5899994,255.147 113.148,37.77 246.447,0.148 322.31,-92.186 52.051,-60.68 82.366,-144.75 68.103,-224.644 -21.702,-88.837 -90.927,-162.766 -178.483,-189.522 -53.05,-17.726 -113.022,-50.278 -150.9,-91.191 -4.784,29.001 -11.279,64.886 -21.369,98.097 -10.09,33.211 -27.328,82.2 -34.39,117.265 30.721,-32.206 68.885,-42.918 104.222,-42.65 88.706,0.676 166.692,79.298 163.19,167.706 -0.717,86.334 -79.409,163.003 -166.145,159.543 -86.404,0.39 -160.458,-76.089 -163.045,-161.413 -1.183,-64.752 25.134,-126.072 42.88,-187.41 34.358,-101.83 49.095,-185.241 48.522,-243.119 -0.572,-57.878 -15.08616,-115.63754 -54.55,-158.448003 C 155.69036,18.278985 101.75782,-0.26807443 87.781821,0.00292557"
     paint-order="stroke fill markers"
     style="mix-blend-mode:normal;fill:url(#d)"
     id="path4" />
</svg>
